<?xml version="1.0" encoding="UTF-8" standalone="no"?>
<!-- Created with Inkscape (http://www.inkscape.org/) -->

<svg
   xmlns:dc="http://purl.org/dc/elements/1.1/"
   xmlns:cc="http://creativecommons.org/ns#"
   xmlns:rdf="http://www.w3.org/1999/02/22-rdf-syntax-ns#"
   xmlns:svg="http://www.w3.org/2000/svg"
   xmlns="http://www.w3.org/2000/svg"
   xmlns:sodipodi="http://sodipodi.sourceforge.net/DTD/sodipodi-0.dtd"
   xmlns:inkscape="http://www.inkscape.org/namespaces/inkscape"
   width="524.40997"
   height="372.04999"
   id="svg3710"
   version="1.1"
   inkscape:version="0.48.4 r9939"
   sodipodi:docname="a6-weiss-lila.svg">
  <defs
     id="defs3712" />
  <sodipodi:namedview
     id="base"
     pagecolor="#ffffff"
     bordercolor="#666666"
     borderopacity="1.0"
     inkscape:pageopacity="0.0"
     inkscape:pageshadow="2"
     inkscape:zoom="2.2873439"
     inkscape:cx="228.75981"
     inkscape:cy="186.02362"
     inkscape:document-units="px"
     inkscape:current-layer="g3773"
     showgrid="false"
     inkscape:window-width="1920"
     inkscape:window-height="1030"
     inkscape:window-x="0"
     inkscape:window-y="28"
     inkscape:window-maximized="1"
     showguides="true"
     inkscape:guide-bbox="true" />
  <metadata
     id="metadata3715">
    <rdf:RDF>
      <cc:Work
         rdf:about="">
        <dc:format>image/svg+xml</dc:format>
        <dc:type
           rdf:resource="http://purl.org/dc/dcmitype/StillImage" />
        <dc:title></dc:title>
      </cc:Work>
    </rdf:RDF>
  </metadata>
  <g
     inkscape:label="Ebene 1"
     inkscape:groupmode="layer"
     id="layer1"
     transform="translate(0,-680.31215)">
    <g
       id="g3773"
       transform="translate(0,12.338772)">
      <rect
         style="fill:#333333;fill-opacity:1;stroke:none"
         id="rect4729"
         width="524.40997"
         height="372.04999"
         x="0"
         y="667.97614" />
      <g
         id="g3854"
         style="fill:#cccccc;fill-opacity:1">
        <path
           inkscape:connector-curvature="0"
           id="path3203"
           style="font-size:40px;font-style:normal;font-variant:normal;font-weight:normal;font-stretch:normal;text-align:start;line-height:125%;letter-spacing:0px;word-spacing:0px;writing-mode:lr-tb;text-anchor:start;fill:#cccccc;fill-opacity:1;stroke:none;font-family:Droid Sans;-inkscape-font-specification:Droid Sans"
           d="m 287.17006,1035.816 -7.87074,0 0,-15.1608 7.87074,0 0,1.7007 -5.94194,0 0,4.6872 5.54789,0 0,1.6799 -5.54789,0 0,5.3923 5.94194,0 0,1.7007" />
        <path
           inkscape:connector-curvature="0"
           id="path3205"
           style="font-size:40px;font-style:normal;font-variant:normal;font-weight:normal;font-stretch:normal;text-align:start;line-height:125%;letter-spacing:0px;word-spacing:0px;writing-mode:lr-tb;text-anchor:start;fill:#cccccc;fill-opacity:1;stroke:none;font-family:Droid Sans;-inkscape-font-specification:Droid Sans"
           d="m 292.12686,1035.816 -1.88731,0 0,-11.3861 1.88731,0 0,11.3861 m -2.03249,-14.466 c 0,-0.4148 0.10369,-0.7155 0.31109,-0.9022 0.21431,-0.1866 0.47702,-0.28 0.78812,-0.28 0.15208,0 0.29381,0.024 0.42516,0.073 0.13826,0.041 0.25579,0.1106 0.35258,0.2074 0.10369,0.097 0.18319,0.2213 0.2385,0.3733 0.0622,0.1452 0.0933,0.3215 0.0933,0.5289 0,0.401 -0.11061,0.7017 -0.33183,0.9022 -0.21432,0.1936 -0.47356,0.2903 -0.77774,0.2903 -0.3111,0 -0.57381,-0.097 -0.78812,-0.2903 -0.2074,-0.1936 -0.31109,-0.4943 -0.31109,-0.9022" />
        <path
           inkscape:connector-curvature="0"
           id="path3207"
           style="font-size:40px;font-style:normal;font-variant:normal;font-weight:normal;font-stretch:normal;text-align:start;line-height:125%;letter-spacing:0px;word-spacing:0px;writing-mode:lr-tb;text-anchor:start;fill:#cccccc;fill-opacity:1;stroke:none;font-family:Droid Sans;-inkscape-font-specification:Droid Sans"
           d="m 302.87006,1035.816 0,-7.3315 c -1e-5,-0.8987 -0.18321,-1.5728 -0.5496,-2.0221 -0.3595,-0.4494 -0.92638,-0.6741 -1.70066,-0.6741 -0.55998,0 -1.03009,0.09 -1.41031,0.2696 -0.38023,0.1798 -0.68787,0.4459 -0.92291,0.7985 -0.22815,0.3526 -0.39407,0.7847 -0.49776,1.2962 -0.0968,0.5116 -0.14518,1.0993 -0.14518,1.7629 l 0,5.9005 -1.88732,0 0,-11.3861 1.53475,0 0.26961,1.5347 0.1037,0 c 0.17283,-0.2973 0.37677,-0.5531 0.61183,-0.7674 0.24196,-0.2212 0.50466,-0.4044 0.7881,-0.5496 0.28345,-0.1451 0.58417,-0.2523 0.90218,-0.3214 0.31801,-0.069 0.64293,-0.1037 0.97477,-0.1037 1.26512,0 2.21569,0.3318 2.85172,0.9955 0.64292,0.6567 0.96439,1.711 0.9644,3.1628 l 0,7.4352 -1.88732,0" />
        <path
           inkscape:connector-curvature="0"
           id="path3209"
           style="font-size:40px;font-style:normal;font-variant:normal;font-weight:normal;font-stretch:normal;text-align:start;line-height:125%;letter-spacing:0px;word-spacing:0px;writing-mode:lr-tb;text-anchor:start;fill:#cccccc;fill-opacity:1;stroke:none;font-family:Droid Sans;-inkscape-font-specification:Droid Sans"
           d="m 315.98796,1029.5526 0,6.2634 -1.9288,0 0,-15.1608 3.69168,0 c 1.83892,0 3.19737,0.3561 4.07536,1.0681 0.87798,0.7121 1.31697,1.7906 1.31698,3.2354 -10e-6,0.6015 -0.0864,1.1269 -0.25925,1.5762 -0.16593,0.4494 -0.39061,0.8365 -0.67404,1.1615 -0.27654,0.318 -0.59455,0.5841 -0.95403,0.7984 -0.3595,0.2144 -0.72936,0.3907 -1.10958,0.5289 l 4.12722,6.7923 -2.27101,0 -3.63983,-6.2634 -2.3747,0 m 0,-1.6385 1.70066,0 c 0.62219,0 1.15105,-0.059 1.58659,-0.1763 0.43553,-0.1244 0.79156,-0.3041 1.0681,-0.5392 0.28343,-0.2419 0.48738,-0.5392 0.61182,-0.8918 0.13135,-0.3595 0.19702,-0.7777 0.19703,-1.2548 -10e-6,-0.4977 -0.0726,-0.9194 -0.21776,-1.2651 -0.13828,-0.3456 -0.35259,-0.6291 -0.64294,-0.8503 -0.28345,-0.2212 -0.64639,-0.3802 -1.08884,-0.477 -0.43554,-0.1037 -0.95403,-0.1556 -1.55548,-0.1556 l -1.65918,0 0,5.6101" />
        <path
           inkscape:connector-curvature="0"
           id="path3211"
           style="font-size:40px;font-style:normal;font-variant:normal;font-weight:normal;font-stretch:normal;text-align:start;line-height:125%;letter-spacing:0px;word-spacing:0px;writing-mode:lr-tb;text-anchor:start;fill:#cccccc;fill-opacity:1;stroke:none;font-family:Droid Sans;-inkscape-font-specification:Droid Sans"
           d="m 332.74569,1035.816 -0.38369,-1.5762 -0.083,0 c -0.22814,0.3111 -0.45628,0.5807 -0.68441,0.8088 -0.22814,0.2212 -0.47702,0.4044 -0.74663,0.5496 -0.26962,0.1452 -0.57035,0.2523 -0.90218,0.3215 -0.33184,0.069 -0.71552,0.1037 -1.15106,0.1037 -0.47701,0 -0.916,-0.069 -1.31697,-0.2074 -0.40097,-0.1314 -0.75009,-0.3353 -1.04736,-0.6118 -0.29036,-0.2835 -0.5185,-0.6361 -0.68441,-1.0578 -0.16592,-0.4286 -0.24888,-0.9333 -0.24888,-1.514 0,-1.1337 0.39751,-2.0048 1.19254,-2.6132 0.80193,-0.6083 2.01867,-0.9402 3.6502,-0.9955 l 1.90805,-0.073 0,-0.7155 c 0,-0.4632 -0.0519,-0.8503 -0.15555,-1.1614 -0.0968,-0.3111 -0.24196,-0.56 -0.43553,-0.7467 -0.18667,-0.1935 -0.42171,-0.3318 -0.70515,-0.4148 -0.27654,-0.083 -0.59455,-0.1244 -0.95403,-0.1244 -0.57381,0 -1.10958,0.083 -1.60733,0.2489 -0.49085,0.1659 -0.96441,0.3664 -1.42068,0.6014 l -0.66367,-1.4206 c 0.51158,-0.2766 1.08192,-0.5116 1.71103,-0.7052 0.62911,-0.1935 1.28932,-0.2903 1.98065,-0.2903 0.70514,0 1.31351,0.073 1.8251,0.2177 0.51849,0.1383 0.94365,0.363 1.27549,0.6741 0.33875,0.3042 0.59108,0.6948 0.757,1.1718 0.16592,0.477 0.24888,1.0542 0.24888,1.7317 l 0,7.7982 -1.35845,0 m -3.46354,-1.317 c 0.4217,0 0.8123,-0.066 1.17179,-0.197 0.35949,-0.1314 0.67058,-0.3284 0.9333,-0.5911 0.26269,-0.2696 0.46663,-0.6049 0.61182,-1.0059 0.15208,-0.4079 0.22812,-0.8849 0.22814,-1.431 l 0,-1.0266 -1.4829,0.072 c -0.6222,0.028 -1.14415,0.097 -1.56585,0.2074 -0.42171,0.1107 -0.76046,0.2662 -1.01625,0.4667 -0.24888,0.1936 -0.42862,0.4321 -0.53923,0.7155 -0.11062,0.2765 -0.16592,0.5911 -0.16592,0.9437 0,0.636 0.16592,1.1026 0.49775,1.3999 0.33875,0.2973 0.7812,0.4459 1.32735,0.4459" />
        <path
           inkscape:connector-curvature="0"
           id="path3213"
           style="font-size:40px;font-style:normal;font-variant:normal;font-weight:normal;font-stretch:normal;text-align:start;line-height:125%;letter-spacing:0px;word-spacing:0px;writing-mode:lr-tb;text-anchor:start;fill:#cccccc;fill-opacity:1;stroke:none;font-family:Droid Sans;-inkscape-font-specification:Droid Sans"
           d="m 344.98215,1035.816 -0.27999,-1.5244 -0.1037,0 c -0.17284,0.2973 -0.38023,0.5565 -0.62219,0.7778 -0.23506,0.2143 -0.49431,0.394 -0.77774,0.5392 -0.28345,0.1383 -0.58418,0.2419 -0.90218,0.3111 -0.31802,0.069 -0.64294,0.1037 -0.97477,0.1037 -0.62911,0 -1.18217,-0.08 -1.65918,-0.2385 -0.47702,-0.159 -0.87453,-0.4079 -1.19254,-0.7467 -0.31801,-0.3387 -0.55997,-0.7708 -0.72589,-1.2962 -0.15901,-0.5254 -0.23851,-1.151 -0.23851,-1.8769 l 0,-7.4352 1.88732,0 0,7.3315 c 0,0.8987 0.1832,1.5727 0.54961,2.0221 0.36639,0.4493 0.93328,0.674 1.70065,0.674 0.55997,0 1.03007,-0.09 1.41031,-0.2696 0.38022,-0.1797 0.6844,-0.4424 0.91255,-0.7881 0.23504,-0.3526 0.40096,-0.7846 0.49775,-1.2962 0.10369,-0.5116 0.15555,-1.0992 0.15555,-1.7629 l 0,-5.9108 1.88732,0 0,11.3861 -1.52437,0" />
        <path
           inkscape:connector-curvature="0"
           id="path3215"
           style="font-size:40px;font-style:normal;font-variant:normal;font-weight:normal;font-stretch:normal;text-align:start;line-height:125%;letter-spacing:0px;word-spacing:0px;writing-mode:lr-tb;text-anchor:start;fill:#cccccc;fill-opacity:1;stroke:none;font-family:Droid Sans;-inkscape-font-specification:Droid Sans"
           d="m 363.77237,1035.816 0,-7.3315 c -1e-5,-0.8987 -0.17284,-1.5728 -0.51849,-2.0221 -0.34568,-0.4494 -0.88145,-0.6741 -1.60734,-0.6741 -0.50467,0 -0.93329,0.083 -1.28586,0.2489 -0.35258,0.159 -0.64294,0.3975 -0.87107,0.7155 -0.22123,0.3111 -0.38369,0.7017 -0.48738,1.1718 -0.10371,0.4632 -0.15556,0.999 -0.15555,1.6073 l 0,6.2842 -1.89769,0 0,-7.3315 c -10e-6,-0.8987 -0.17284,-1.5728 -0.51849,-2.0221 -0.33876,-0.4494 -0.87108,-0.6741 -1.59697,-0.6741 -0.53232,0 -0.97822,0.09 -1.33771,0.2696 -0.35949,0.1798 -0.64985,0.4459 -0.87107,0.7985 -0.21432,0.3526 -0.36986,0.7847 -0.46664,1.2962 -0.0899,0.5116 -0.13482,1.0993 -0.13482,1.7629 l 0,5.9005 -1.88731,0 0,-11.3861 1.53474,0 0.26962,1.5347 0.1037,0 c 0.16591,-0.2973 0.36294,-0.5531 0.59108,-0.7674 0.22813,-0.2212 0.47701,-0.4044 0.74663,-0.5496 0.27653,-0.1451 0.56689,-0.2523 0.87107,-0.3214 0.31109,-0.069 0.62565,-0.1037 0.94366,-0.1037 0.82958,0 1.51745,0.1521 2.06361,0.4562 0.55305,0.3042 0.96093,0.7812 1.22364,1.4311 l 0.083,0 c 0.17974,-0.3249 0.39405,-0.6049 0.64293,-0.84 0.25578,-0.235 0.53231,-0.4286 0.82959,-0.5807 0.30418,-0.159 0.62218,-0.2765 0.95404,-0.3526 0.33182,-0.076 0.67057,-0.114 1.01624,-0.114 1.20981,0 2.1189,0.3318 2.72728,0.9955 0.61526,0.6567 0.92291,1.711 0.92292,3.1628 l 0,7.4352 -1.88732,0" />
        <path
           inkscape:connector-curvature="0"
           id="path3217"
           style="font-size:40px;font-style:normal;font-variant:normal;font-weight:normal;font-stretch:normal;text-align:start;line-height:125%;letter-spacing:0px;word-spacing:0px;writing-mode:lr-tb;text-anchor:start;fill:#cccccc;fill-opacity:1;stroke:none;font-family:Droid Sans;-inkscape-font-specification:Droid Sans"
           d="m 379.63829,1025.8505 -2.54062,0 0,9.9655 -1.89769,0 0,-9.9655 -2.01175,0 0,-0.7777 2.01175,-0.7052 0,-0.9955 c 0,-0.7397 0.076,-1.3515 0.22814,-1.8354 0.159,-0.4909 0.38368,-0.8815 0.67404,-1.1718 0.29727,-0.2904 0.66021,-0.4943 1.08884,-0.6119 0.42862,-0.1244 0.91254,-0.1866 1.45178,-0.1866 0.40788,0 0.7812,0.041 1.11995,0.1244 0.34566,0.076 0.65329,0.1625 0.92292,0.2593 l -0.48739,1.4621 c -0.21431,-0.076 -0.44937,-0.1417 -0.70515,-0.197 -0.24888,-0.062 -0.51159,-0.093 -0.78811,-0.093 -0.27653,0 -0.51504,0.034 -0.71552,0.1037 -0.20049,0.062 -0.36641,0.1763 -0.49776,0.3422 -0.13135,0.1659 -0.23159,0.394 -0.30072,0.6844 -0.0622,0.2834 -0.0933,0.6498 -0.0933,1.0992 l 0,1.0785 2.54062,0 0,1.4206" />
        <path
           inkscape:connector-curvature="0"
           id="path3219"
           style="font-size:40px;font-style:normal;font-variant:normal;font-weight:normal;font-stretch:normal;text-align:start;line-height:125%;letter-spacing:0px;word-spacing:0px;writing-mode:lr-tb;text-anchor:start;fill:#cccccc;fill-opacity:1;stroke:none;font-family:Droid Sans;-inkscape-font-specification:Droid Sans"
           d="m 389.07488,1035.816 -0.27998,-1.5244 -0.10371,0 c -0.17283,0.2973 -0.38023,0.5565 -0.62219,0.7778 -0.23505,0.2143 -0.4943,0.394 -0.77773,0.5392 -0.28346,0.1383 -0.58419,0.2419 -0.90219,0.3111 -0.31801,0.069 -0.64293,0.1037 -0.97477,0.1037 -0.62911,0 -1.18217,-0.08 -1.65918,-0.2385 -0.47701,-0.159 -0.87453,-0.4079 -1.19253,-0.7467 -0.31802,-0.3387 -0.55998,-0.7708 -0.72589,-1.2962 -0.15901,-0.5254 -0.23851,-1.151 -0.23851,-1.8769 l 0,-7.4352 1.88732,0 0,7.3315 c -1e-5,0.8987 0.18319,1.5727 0.5496,2.0221 0.3664,0.4493 0.93329,0.674 1.70066,0.674 0.55997,0 1.03007,-0.09 1.41031,-0.2696 0.38022,-0.1797 0.6844,-0.4424 0.91254,-0.7881 0.23505,-0.3526 0.40096,-0.7846 0.49776,-1.2962 0.10369,-0.5116 0.15554,-1.0992 0.15555,-1.7629 l 0,-5.9108 1.88731,0 0,11.3861 -1.52437,0 m -5.97305,-14.466 c 0,-0.3733 0.0968,-0.6429 0.29036,-0.8088 0.19356,-0.166 0.42862,-0.2489 0.70515,-0.2489 0.26961,0 0.50466,0.086 0.70515,0.2592 0.20048,0.1659 0.30072,0.4321 0.30073,0.7985 -1e-5,0.3664 -0.10025,0.636 -0.30073,0.8088 -0.20049,0.1729 -0.43554,0.2593 -0.70515,0.2593 -0.27653,0 -0.51159,-0.086 -0.70515,-0.2593 -0.19357,-0.1728 -0.29036,-0.4424 -0.29036,-0.8088 m 3.88871,0 c -1e-5,-0.3733 0.0968,-0.6429 0.29035,-0.8088 0.19356,-0.166 0.42862,-0.2489 0.70516,-0.2489 0.13134,0 0.25578,0.021 0.37331,0.062 0.12443,0.041 0.23159,0.1072 0.32147,0.197 0.0899,0.083 0.16245,0.1901 0.21776,0.3215 0.0553,0.1314 0.0829,0.2904 0.083,0.477 -10e-6,0.3664 -0.10025,0.636 -0.30072,0.8088 -0.2005,0.1729 -0.43209,0.2593 -0.69478,0.2593 -0.27654,0 -0.5116,-0.086 -0.70516,-0.2593 -0.19357,-0.1728 -0.29036,-0.4424 -0.29035,-0.8088" />
        <path
           inkscape:connector-curvature="0"
           id="path3221"
           style="font-size:40px;font-style:normal;font-variant:normal;font-weight:normal;font-stretch:normal;text-align:start;line-height:125%;letter-spacing:0px;word-spacing:0px;writing-mode:lr-tb;text-anchor:start;fill:#cccccc;fill-opacity:1;stroke:none;font-family:Droid Sans;-inkscape-font-specification:Droid Sans"
           d="m 399.15441,1024.2225 c 0.20048,0 0.42515,0.01 0.67404,0.031 0.24887,0.014 0.46318,0.038 0.64293,0.073 l -0.24888,1.7421 c -0.19357,-0.035 -0.39406,-0.062 -0.60145,-0.083 -0.20049,-0.028 -0.39061,-0.041 -0.57034,-0.041 -0.43554,0 -0.83306,0.09 -1.19254,0.2696 -0.35949,0.1728 -0.67059,0.4252 -0.93329,0.757 -0.25579,0.3249 -0.45628,0.719 -0.60145,1.1822 -0.13827,0.4562 -0.2074,0.9644 -0.2074,1.5243 l 0,6.139 -1.88732,0 0,-11.3861 1.53475,0 0.22813,2.0843 0.083,0 c 0.17283,-0.2972 0.35603,-0.5841 0.54961,-0.8607 0.20048,-0.2765 0.4217,-0.5185 0.66367,-0.7259 0.24887,-0.2143 0.5254,-0.3837 0.82959,-0.5081 0.30418,-0.1313 0.64984,-0.197 1.03699,-0.197" />
      </g>
      <g
         id="g3840"
         style="fill:#800080;fill-opacity:1">
        <path
           inkscape:connector-curvature="0"
           id="path3223"
           style="font-size:40px;font-style:normal;font-variant:normal;font-weight:normal;font-stretch:normal;text-align:start;line-height:125%;letter-spacing:0px;word-spacing:0px;writing-mode:lr-tb;text-anchor:start;fill:#800080;fill-opacity:1;stroke:none;font-family:Droid Sans;-inkscape-font-specification:Droid Sans"
           d="m 419.63492,1028.0904 c -1e-5,1.279 -0.16593,2.4024 -0.49775,3.3702 -0.33185,0.961 -0.81232,1.7664 -1.44142,2.4162 -0.62911,0.6429 -1.4034,1.1269 -2.32285,1.4518 -0.91255,0.3249 -1.94955,0.4874 -3.11096,0.4874 l -3.79538,0 0,-15.1608 4.22054,0 c 1.05772,0 2.0152,0.159 2.87246,0.477 0.85723,0.3181 1.58658,0.7916 2.18805,1.4207 0.60144,0.6222 1.06462,1.3965 1.38956,2.3229 0.33182,0.9263 0.49774,1.9979 0.49775,3.2146 m -2.04286,0.062 c -1e-5,-1.0093 -0.11409,-1.8804 -0.34221,-2.6132 -0.22815,-0.7397 -0.55998,-1.348 -0.99551,-1.8251 -0.43554,-0.477 -0.97132,-0.8295 -1.60733,-1.0577 -0.63603,-0.235 -1.35846,-0.3526 -2.16731,-0.3526 l -2.08434,0 0,11.8528 1.67992,0 c 1.82509,0 3.20082,-0.5047 4.12721,-1.514 0.92637,-1.0093 1.38956,-2.5061 1.38957,-4.4902" />
        <path
           inkscape:connector-curvature="0"
           id="path3225"
           style="font-size:40px;font-style:normal;font-variant:normal;font-weight:normal;font-stretch:normal;text-align:start;line-height:125%;letter-spacing:0px;word-spacing:0px;writing-mode:lr-tb;text-anchor:start;fill:#800080;fill-opacity:1;stroke:none;font-family:Droid Sans;-inkscape-font-specification:Droid Sans"
           d="m 427.22567,1036.0234 c -0.76046,0 -1.45524,-0.1279 -2.08434,-0.3837 -0.62911,-0.2558 -1.1718,-0.6291 -1.62807,-1.12 -0.44937,-0.4908 -0.79849,-1.0992 -1.04736,-1.8251 -0.24888,-0.7258 -0.37332,-1.5554 -0.37332,-2.4887 0,-0.9402 0.11407,-1.7802 0.34221,-2.5199 0.22814,-0.7397 0.5496,-1.3654 0.9644,-1.877 0.41479,-0.5184 0.90909,-0.9125 1.48289,-1.1821 0.58071,-0.2696 1.22018,-0.4044 1.91843,-0.4044 0.68441,0 1.29968,0.1244 1.84584,0.3733 0.54614,0.2419 1.00933,0.5876 1.38956,1.037 0.38022,0.4424 0.67058,0.9782 0.87107,1.6073 0.20739,0.6222 0.31109,1.3135 0.3111,2.074 l 0,1.1718 -7.17596,0 c 0.0346,1.3342 0.31455,2.3159 0.83996,2.945 0.53232,0.6291 1.32043,0.9437 2.36433,0.9437 0.35257,0 0.6775,-0.017 0.97477,-0.052 0.30418,-0.035 0.59454,-0.083 0.87107,-0.1452 0.28344,-0.069 0.55651,-0.1521 0.81922,-0.2489 0.2627,-0.1037 0.52886,-0.2177 0.79849,-0.3422 l 0,1.68 c -0.27654,0.1313 -0.54962,0.2454 -0.81923,0.3422 -0.26271,0.097 -0.53578,0.1762 -0.81922,0.2385 -0.27654,0.062 -0.56689,0.1071 -0.87106,0.1348 -0.29728,0.028 -0.62221,0.041 -0.97478,0.041 m -0.46664,-10.235 c -0.78812,0 -1.41377,0.2696 -1.87695,0.8089 -0.45627,0.5392 -0.72244,1.3239 -0.79848,2.3539 l 5.10198,0 c -1e-5,-0.4701 -0.0484,-0.8987 -0.14518,-1.2858 -0.0899,-0.3941 -0.23505,-0.7294 -0.43553,-1.0059 -0.19358,-0.2765 -0.44246,-0.4909 -0.74663,-0.643 -0.30419,-0.152 -0.6706,-0.2281 -1.09921,-0.2281" />
        <path
           inkscape:connector-curvature="0"
           id="path3227"
           style="font-size:40px;font-style:normal;font-variant:normal;font-weight:normal;font-stretch:normal;text-align:start;line-height:125%;letter-spacing:0px;word-spacing:0px;writing-mode:lr-tb;text-anchor:start;fill:#800080;fill-opacity:1;stroke:none;font-family:Droid Sans;-inkscape-font-specification:Droid Sans"
           d="m 435.97785,1035.816 -1.88731,0 0,-11.3861 1.88731,0 0,11.3861 m -2.03249,-14.466 c 0,-0.4148 0.1037,-0.7155 0.3111,-0.9022 0.2143,-0.1866 0.47701,-0.28 0.7881,-0.28 0.1521,0 0.29381,0.024 0.42517,0.073 0.13826,0.041 0.25579,0.1106 0.35258,0.2074 0.10369,0.097 0.18319,0.2213 0.2385,0.3733 0.0622,0.1452 0.0933,0.3215 0.0933,0.5289 0,0.401 -0.11061,0.7017 -0.33183,0.9022 -0.21432,0.1936 -0.47357,0.2903 -0.77775,0.2903 -0.31109,0 -0.5738,-0.097 -0.7881,-0.2903 -0.2074,-0.1936 -0.3111,-0.4943 -0.3111,-0.9022" />
        <path
           inkscape:connector-curvature="0"
           id="path3229"
           style="font-size:40px;font-style:normal;font-variant:normal;font-weight:normal;font-stretch:normal;text-align:start;line-height:125%;letter-spacing:0px;word-spacing:0px;writing-mode:lr-tb;text-anchor:start;fill:#800080;fill-opacity:1;stroke:none;font-family:Droid Sans;-inkscape-font-specification:Droid Sans"
           d="m 446.72105,1035.816 0,-7.3315 c -10e-6,-0.8987 -0.18321,-1.5728 -0.5496,-2.0221 -0.3595,-0.4494 -0.92638,-0.6741 -1.70066,-0.6741 -0.55998,0 -1.03009,0.09 -1.41031,0.2696 -0.38023,0.1798 -0.68787,0.4459 -0.92291,0.7985 -0.22815,0.3526 -0.39407,0.7847 -0.49776,1.2962 -0.0968,0.5116 -0.14518,1.0993 -0.14518,1.7629 l 0,5.9005 -1.88732,0 0,-11.3861 1.53475,0 0.26961,1.5347 0.1037,0 c 0.17283,-0.2973 0.37677,-0.5531 0.61183,-0.7674 0.24196,-0.2212 0.50466,-0.4044 0.7881,-0.5496 0.28345,-0.1451 0.58417,-0.2523 0.90218,-0.3214 0.31801,-0.069 0.64293,-0.1037 0.97477,-0.1037 1.26512,0 2.21569,0.3318 2.85172,0.9955 0.64292,0.6567 0.96439,1.711 0.9644,3.1628 l 0,7.4352 -1.88732,0" />
        <path
           inkscape:connector-curvature="0"
           id="path3231"
           style="font-size:40px;font-style:normal;font-variant:normal;font-weight:normal;font-stretch:normal;text-align:start;line-height:125%;letter-spacing:0px;word-spacing:0px;writing-mode:lr-tb;text-anchor:start;fill:#800080;fill-opacity:1;stroke:none;font-family:Droid Sans;-inkscape-font-specification:Droid Sans"
           d="m 456.63465,1036.0234 c -0.76046,0 -1.45524,-0.1279 -2.08434,-0.3837 -0.62911,-0.2558 -1.1718,-0.6291 -1.62807,-1.12 -0.44936,-0.4908 -0.79848,-1.0992 -1.04736,-1.8251 -0.24888,-0.7258 -0.37332,-1.5554 -0.37331,-2.4887 -1e-5,-0.9402 0.11407,-1.7802 0.3422,-2.5199 0.22814,-0.7397 0.5496,-1.3654 0.9644,-1.877 0.41479,-0.5184 0.90909,-0.9125 1.48289,-1.1821 0.58071,-0.2696 1.22019,-0.4044 1.91843,-0.4044 0.68441,0 1.29969,0.1244 1.84584,0.3733 0.54614,0.2419 1.00933,0.5876 1.38956,1.037 0.38022,0.4424 0.67058,0.9782 0.87108,1.6073 0.20738,0.6222 0.31108,1.3135 0.31109,2.074 l 0,1.1718 -7.17596,0 c 0.0346,1.3342 0.31455,2.3159 0.83996,2.945 0.53232,0.6291 1.32043,0.9437 2.36434,0.9437 0.35257,0 0.67749,-0.017 0.97476,-0.052 0.30418,-0.035 0.59454,-0.083 0.87108,-0.1452 0.28343,-0.069 0.5565,-0.1521 0.81922,-0.2489 0.26269,-0.1037 0.52885,-0.2177 0.79848,-0.3422 l 0,1.68 c -0.27654,0.1313 -0.54962,0.2454 -0.81922,0.3422 -0.26271,0.097 -0.53579,0.1762 -0.81922,0.2385 -0.27654,0.062 -0.5669,0.1071 -0.87107,0.1348 -0.29728,0.028 -0.62221,0.041 -0.97478,0.041 m -0.46664,-10.235 c -0.78812,0 -1.41376,0.2696 -1.87695,0.8088 -0.45627,0.5393 -0.72243,1.3239 -0.79847,2.354 l 5.10197,0 c 0,-0.4701 -0.0484,-0.8987 -0.14518,-1.2859 -0.0899,-0.394 -0.23505,-0.7293 -0.43553,-1.0059 -0.19358,-0.2765 -0.44246,-0.4908 -0.74663,-0.6429 -0.30419,-0.1521 -0.67059,-0.2281 -1.09921,-0.2281" />
      </g>
      <g
         id="g3847"
         style="fill:#cccccc;fill-opacity:1">
        <path
           inkscape:connector-curvature="0"
           id="path3233"
           style="font-size:40px;font-style:normal;font-variant:normal;font-weight:normal;font-stretch:normal;text-align:start;line-height:125%;letter-spacing:0px;word-spacing:0px;writing-mode:lr-tb;text-anchor:start;fill:#cccccc;fill-opacity:1;stroke:none;font-family:Droid Sans;-inkscape-font-specification:Droid Sans"
           d="m 473.5583,1035.816 -5.49603,0 0,-1.0577 1.78362,-0.4252 0,-12.195 -1.78362,-0.4252 0,-1.0577 5.49603,0 0,1.0577 -1.78362,0.4252 0,12.195 1.78362,0.4252 0,1.0577" />
        <path
           inkscape:connector-curvature="0"
           id="path3235"
           style="font-size:40px;font-style:normal;font-variant:normal;font-weight:normal;font-stretch:normal;text-align:start;line-height:125%;letter-spacing:0px;word-spacing:0px;writing-mode:lr-tb;text-anchor:start;fill:#cccccc;fill-opacity:1;stroke:none;font-family:Droid Sans;-inkscape-font-specification:Droid Sans"
           d="m 483.26451,1034.2916 -0.083,0 c -0.1521,0.2351 -0.33184,0.4597 -0.53923,0.6741 -0.20049,0.2074 -0.43554,0.3906 -0.70516,0.5496 -0.2627,0.159 -0.55998,0.2834 -0.8918,0.3733 -0.33184,0.09 -0.70516,0.1348 -1.11995,0.1348 -0.64293,0 -1.23056,-0.1245 -1.76288,-0.3733 -0.53232,-0.2489 -0.9886,-0.6188 -1.36883,-1.1096 -0.38022,-0.4978 -0.67404,-1.113 -0.88143,-1.8459 -0.2074,-0.7328 -0.3111,-1.5831 -0.3111,-2.5509 0,-0.9748 0.1037,-1.8286 0.3111,-2.5614 0.20739,-0.7397 0.50121,-1.3584 0.88143,-1.8562 0.38023,-0.4978 0.83651,-0.8711 1.36883,-1.12 0.53232,-0.2557 1.11995,-0.3836 1.76288,-0.3836 0.40788,0 0.77773,0.045 1.10958,0.1348 0.33183,0.09 0.6291,0.2108 0.89181,0.3629 0.26961,0.1521 0.50811,0.3284 0.71552,0.5289 0.20739,0.2005 0.38713,0.4113 0.53923,0.6325 l 0.12444,0 c -0.0208,-0.235 -0.0415,-0.4597 -0.0622,-0.674 -0.0139,-0.1797 -0.0277,-0.3629 -0.0415,-0.5496 -0.0138,-0.1936 -0.0207,-0.3457 -0.0207,-0.4563 l 0,-4.5213 1.88731,0 0,16.1356 -1.52437,0 -0.27999,-1.5244 m -2.97615,0.1659 c 0.5254,0 0.96785,-0.08 1.32735,-0.2385 0.36639,-0.159 0.6602,-0.4009 0.88143,-0.7259 0.22813,-0.3249 0.39405,-0.7293 0.49776,-1.2132 0.1106,-0.4909 0.17282,-1.0612 0.18666,-1.7111 l 0,-0.4251 c -1e-5,-0.6983 -0.0484,-1.317 -0.14518,-1.8563 -0.0899,-0.5461 -0.24889,-1.0024 -0.47702,-1.3688 -0.22123,-0.3733 -0.5185,-0.6533 -0.89181,-0.8399 -0.37332,-0.1936 -0.83996,-0.2904 -1.39993,-0.2904 -0.93329,0 -1.62116,0.3768 -2.06361,1.1303 -0.43553,0.7536 -0.6533,1.8355 -0.6533,3.2458 0,1.4449 0.21777,2.5233 0.6533,3.2354 0.44245,0.7052 1.13723,1.0577 2.08435,1.0577" />
        <path
           inkscape:connector-curvature="0"
           id="path3237"
           style="font-size:40px;font-style:normal;font-variant:normal;font-weight:normal;font-stretch:normal;text-align:start;line-height:125%;letter-spacing:0px;word-spacing:0px;writing-mode:lr-tb;text-anchor:start;fill:#cccccc;fill-opacity:1;stroke:none;font-family:Droid Sans;-inkscape-font-specification:Droid Sans"
           d="m 493.17812,1036.0234 c -0.76046,0 -1.45524,-0.1279 -2.08435,-0.3837 -0.62911,-0.2558 -1.1718,-0.6291 -1.62807,-1.12 -0.44936,-0.4908 -0.79848,-1.0992 -1.04735,-1.8251 -0.24889,-0.7258 -0.37332,-1.5554 -0.37332,-2.4887 0,-0.9402 0.11406,-1.7802 0.3422,-2.5199 0.22814,-0.7397 0.5496,-1.3654 0.9644,-1.877 0.41479,-0.5184 0.90909,-0.9125 1.4829,-1.1821 0.5807,-0.2696 1.22018,-0.4044 1.91842,-0.4044 0.68441,0 1.29969,0.1244 1.84584,0.3733 0.54614,0.2419 1.00933,0.5876 1.38957,1.037 0.38022,0.4424 0.67057,0.9782 0.87106,1.6073 0.20739,0.6222 0.31109,1.3135 0.3111,2.074 l 0,1.1718 -7.17595,0 c 0.0346,1.3342 0.31455,2.3159 0.83996,2.945 0.53231,0.6291 1.32042,0.9437 2.36433,0.9437 0.35257,0 0.67749,-0.017 0.97477,-0.052 0.30417,-0.035 0.59453,-0.083 0.87106,-0.1452 0.28344,-0.069 0.55652,-0.1521 0.81923,-0.2489 0.26269,-0.1037 0.52885,-0.2177 0.79848,-0.3422 l 0,1.68 c -0.27654,0.1313 -0.54961,0.2454 -0.81922,0.3422 -0.26272,0.097 -0.53579,0.1762 -0.81922,0.2385 -0.27654,0.062 -0.5669,0.1071 -0.87107,0.1348 -0.29728,0.028 -0.6222,0.041 -0.97477,0.041 m -0.46665,-10.235 c -0.78811,0 -1.41376,0.2696 -1.87694,0.8089 -0.45628,0.5392 -0.72245,1.3239 -0.79849,2.3539 l 5.10199,0 c -1e-5,-0.4701 -0.0484,-0.8987 -0.14518,-1.2858 -0.0899,-0.3941 -0.23506,-0.7294 -0.43554,-1.0059 -0.19358,-0.2765 -0.44245,-0.4909 -0.74663,-0.643 -0.30419,-0.152 -0.67059,-0.2281 -1.09921,-0.2281" />
        <path
           inkscape:connector-curvature="0"
           id="path3239"
           style="font-size:40px;font-style:normal;font-variant:normal;font-weight:normal;font-stretch:normal;text-align:start;line-height:125%;letter-spacing:0px;word-spacing:0px;writing-mode:lr-tb;text-anchor:start;fill:#cccccc;fill-opacity:1;stroke:none;font-family:Droid Sans;-inkscape-font-specification:Droid Sans"
           d="m 504.54351,1036.0234 c -0.76046,0 -1.45524,-0.1279 -2.08435,-0.3837 -0.62911,-0.2558 -1.1718,-0.6291 -1.62807,-1.12 -0.44937,-0.4908 -0.79848,-1.0992 -1.04736,-1.8251 -0.24888,-0.7258 -0.37331,-1.5554 -0.37331,-2.4887 0,-0.9402 0.11406,-1.7802 0.3422,-2.5199 0.22814,-0.7397 0.5496,-1.3654 0.9644,-1.877 0.41479,-0.5184 0.90909,-0.9125 1.4829,-1.1821 0.5807,-0.2696 1.22018,-0.4044 1.91842,-0.4044 0.68441,0 1.29969,0.1244 1.84584,0.3733 0.54614,0.2419 1.00933,0.5876 1.38957,1.037 0.38022,0.4424 0.67057,0.9782 0.87106,1.6073 0.20739,0.6222 0.31109,1.3135 0.3111,2.074 l 0,1.1718 -7.17595,0 c 0.0346,1.3342 0.31455,2.3159 0.83996,2.945 0.53231,0.6291 1.32042,0.9437 2.36433,0.9437 0.35257,0 0.67749,-0.017 0.97477,-0.052 0.30417,-0.035 0.59453,-0.083 0.87106,-0.1452 0.28344,-0.069 0.55652,-0.1521 0.81923,-0.2489 0.26269,-0.1037 0.52885,-0.2177 0.79848,-0.3422 l 0,1.68 c -0.27654,0.1313 -0.54961,0.2454 -0.81922,0.3422 -0.26272,0.097 -0.53579,0.1762 -0.81922,0.2385 -0.27654,0.062 -0.5669,0.1071 -0.87107,0.1348 -0.29728,0.028 -0.6222,0.041 -0.97477,0.041 m -0.46665,-10.235 c -0.78811,0 -1.41376,0.2696 -1.87694,0.8089 -0.45628,0.5392 -0.72245,1.3239 -0.79849,2.3539 l 5.10199,0 c -1e-5,-0.4701 -0.0484,-0.8987 -0.14518,-1.2858 -0.0899,-0.3941 -0.23506,-0.7294 -0.43554,-1.0059 -0.19358,-0.2765 -0.44245,-0.4909 -0.74663,-0.643 -0.30419,-0.152 -0.67059,-0.2281 -1.09921,-0.2281" />
        <path
           inkscape:connector-curvature="0"
           id="path3241"
           style="font-size:40px;font-style:normal;font-variant:normal;font-weight:normal;font-stretch:normal;text-align:start;line-height:125%;letter-spacing:0px;word-spacing:0px;writing-mode:lr-tb;text-anchor:start;fill:#cccccc;fill-opacity:1;stroke:none;font-family:Droid Sans;-inkscape-font-specification:Droid Sans"
           d="m 518.52211,1035.816 0,-7.3315 c -10e-6,-0.8987 -0.18321,-1.5728 -0.54961,-2.0221 -0.35949,-0.4494 -0.92638,-0.6741 -1.70066,-0.6741 -0.55998,0 -1.03008,0.09 -1.4103,0.2696 -0.38023,0.1798 -0.68787,0.4459 -0.92292,0.7985 -0.22814,0.3526 -0.39406,0.7847 -0.49776,1.2962 -0.0968,0.5116 -0.14517,1.0993 -0.14517,1.7629 l 0,5.9005 -1.88732,0 0,-11.3861 1.53474,0 0.26962,1.5347 0.1037,0 c 0.17282,-0.2973 0.37677,-0.5531 0.61182,-0.7674 0.24196,-0.2212 0.50466,-0.4044 0.78811,-0.5496 0.28344,-0.1451 0.58417,-0.2523 0.90218,-0.3214 0.318,-0.069 0.64293,-0.1037 0.97477,-0.1037 1.26512,0 2.21569,0.3318 2.85172,0.9955 0.64292,0.6567 0.96438,1.711 0.96439,3.1628 l 0,7.4352 -1.88731,0" />
      </g>
      <path
         style="fill:#800080;fill-opacity:1;stroke:none"
         d="m 188.40457,854.11841 c 1e-5,-40.75922 33.04091,-73.80014 73.80014,-73.80015 l 0,-28.98005 c -56.76618,0 -102.78019,46.01402 -102.7802,102.7802 z"
         id="path3675"
         inkscape:connector-curvature="0"
         sodipodi:nodetypes="ccccc"
         inkscape:transform-center-y="-70.197884"
         inkscape:transform-center-x="70.196105" />
      <path
         inkscape:connector-curvature="0"
         id="path3765"
         d="m 262.20471,751.21959 0,28.98002 c 40.75924,0 73.80015,33.04091 73.80015,73.80014 0,40.75923 -33.04091,73.80014 -73.80015,73.80014 -40.75923,0 -73.80014,-33.04091 -73.80014,-73.80014 l -28.98006,0 c 0,56.76619 46.01402,102.7802 102.7802,102.7802 56.76619,0 102.7802,-46.01401 102.7802,-102.7802 0,-56.76618 -46.01401,-102.78019 -102.7802,-102.78019 z"
         style="fill:#cccccc;fill-opacity:1;stroke:none"
         sodipodi:nodetypes="ccssccsscc" />
    </g>
  </g>
</svg>
