<?xml version="1.0" encoding="UTF-8" standalone="no"?>
<!-- Created with Inkscape (http://www.inkscape.org/) -->

<svg
   xmlns:dc="http://purl.org/dc/elements/1.1/"
   xmlns:cc="http://creativecommons.org/ns#"
   xmlns:rdf="http://www.w3.org/1999/02/22-rdf-syntax-ns#"
   xmlns:svg="http://www.w3.org/2000/svg"
   xmlns="http://www.w3.org/2000/svg"
   xmlns:sodipodi="http://sodipodi.sourceforge.net/DTD/sodipodi-0.dtd"
   xmlns:inkscape="http://www.inkscape.org/namespaces/inkscape"
   width="524.40942"
   height="372.04724"
   id="svg3710"
   version="1.1"
   inkscape:version="0.48.4 r9939"
   sodipodi:docname="a6-weiss-pink.svg">
  <defs
     id="defs3712" />
  <sodipodi:namedview
     id="base"
     pagecolor="#ffffff"
     bordercolor="#666666"
     borderopacity="1.0"
     inkscape:pageopacity="0.0"
     inkscape:pageshadow="2"
     inkscape:zoom="2.2873439"
     inkscape:cx="262.20472"
     inkscape:cy="186.02362"
     inkscape:document-units="px"
     inkscape:current-layer="flowRoot2985"
     showgrid="false"
     inkscape:window-width="1920"
     inkscape:window-height="1030"
     inkscape:window-x="0"
     inkscape:window-y="28"
     inkscape:window-maximized="1" />
  <metadata
     id="metadata3715">
    <rdf:RDF>
      <cc:Work
         rdf:about="">
        <dc:format>image/svg+xml</dc:format>
        <dc:type
           rdf:resource="http://purl.org/dc/dcmitype/StillImage" />
        <dc:title></dc:title>
      </cc:Work>
    </rdf:RDF>
  </metadata>
  <g
     inkscape:label="Ebene 1"
     inkscape:groupmode="layer"
     id="layer1"
     transform="translate(0,-680.31491)">
    <g
       id="g3773"
       transform="translate(0,12.338772)">
      <rect
         style="fill:#333333;fill-opacity:1;stroke:none"
         id="rect4729"
         width="524.40997"
         height="372.04999"
         x="-0.0002746582"
         y="667.97479" />
      <g
         id="flowRoot2985"
         style="font-size:40px;font-style:normal;font-weight:normal;line-height:125%;letter-spacing:0px;word-spacing:0px;fill:#000000;fill-opacity:1;stroke:none;font-family:Sans"
         transform="matrix(0.53093791,0,0,0.53093791,241.6131,927.12571)">
        <g
           id="g3028"
           style="fill:#cccccc">
          <path
             d="m 85.804687,204.71372 -14.824218,0 0,-28.55469 14.824218,0 0,3.20312 -11.191406,0 0,8.82813 10.449219,0 0,3.16406 -10.449219,0 0,10.15625 11.191406,0 0,3.20313"
             style="font-variant:normal;font-stretch:normal;text-align:start;line-height:125%;writing-mode:lr-tb;text-anchor:start;font-family:Droid Sans;-inkscape-font-specification:Droid Sans;fill:#cccccc"
             id="path3203"
             inkscape:connector-curvature="0" />
          <path
             d="m 95.140625,204.71372 -3.554688,0 0,-21.44532 3.554688,0 0,21.44532 M 91.3125,177.46762 c -3e-6,-0.78122 0.195309,-1.34762 0.585937,-1.69922 0.403642,-0.35153 0.898433,-0.52731 1.484375,-0.52734 0.286453,3e-5 0.55338,0.0456 0.800782,0.13672 0.26041,0.0781 0.481764,0.20836 0.664062,0.39062 0.195306,0.18232 0.345045,0.4167 0.449219,0.70313 0.11718,0.27346 0.175774,0.6055 0.175781,0.99609 -7e-6,0.75524 -0.20834,1.32164 -0.625,1.69922 -0.403652,0.36461 -0.891933,0.5469 -1.464844,0.54688 -0.585942,2e-5 -1.080733,-0.18227 -1.484375,-0.54688 -0.390628,-0.36456 -0.58594,-0.93096 -0.585937,-1.69922"
             style="font-variant:normal;font-stretch:normal;text-align:start;line-height:125%;writing-mode:lr-tb;text-anchor:start;font-family:Droid Sans;-inkscape-font-specification:Droid Sans;fill:#cccccc"
             id="path3205"
             inkscape:connector-curvature="0" />
          <path
             d="m 115.375,204.71372 0,-13.8086 c -2e-5,-1.69269 -0.34507,-2.96222 -1.03516,-3.80859 -0.67709,-0.84634 -1.7448,-1.26951 -3.20312,-1.26953 -1.0547,2e-5 -1.94012,0.16929 -2.65625,0.50781 -0.71616,0.33856 -1.29558,0.83986 -1.73828,1.50391 -0.4297,0.66408 -0.7422,1.47788 -0.9375,2.4414 -0.1823,0.96356 -0.27345,2.07033 -0.27344,3.32032 l 0,11.11328 -3.55469,0 0,-21.44532 2.89063,0 0.50781,2.89063 0.19531,0 c 0.32552,-0.55988 0.70963,-1.04165 1.15235,-1.44531 0.45572,-0.41665 0.95051,-0.7617 1.48437,-1.03516 0.53385,-0.27342 1.10025,-0.47524 1.69922,-0.60547 0.59895,-0.13019 1.21092,-0.19529 1.83594,-0.19531 2.38279,2e-5 4.17316,0.62502 5.37109,1.875 1.21092,1.237 1.81639,3.22267 1.81641,5.95703 l 0,14.00391 -3.55469,0"
             style="font-variant:normal;font-stretch:normal;text-align:start;line-height:125%;writing-mode:lr-tb;text-anchor:start;font-family:Droid Sans;-inkscape-font-specification:Droid Sans;fill:#cccccc"
             id="path3207"
             inkscape:connector-curvature="0" />
          <path
             d="m 140.08203,192.91684 0,11.79688 -3.63281,0 0,-28.55469 6.95312,0 c 3.46353,3e-5 6.02212,0.6706 7.67578,2.01172 1.65363,1.34117 2.48045,3.37242 2.48047,6.09375 -2e-5,1.13283 -0.16278,2.12241 -0.48828,2.96875 -0.31252,0.84637 -0.73569,1.57553 -1.26953,2.1875 -0.52085,0.59897 -1.11981,1.10027 -1.79687,1.5039 -0.6771,0.40366 -1.37372,0.73569 -2.08985,0.9961 l 7.77344,12.79297 -4.27734,0 -6.85547,-11.79688 -4.47266,0 m 0,-3.08594 3.20313,0 c 1.17186,2e-5 2.16795,-0.11066 2.98828,-0.33203 0.8203,-0.23436 1.49087,-0.5729 2.01172,-1.01562 0.53383,-0.45571 0.91795,-1.01561 1.15234,-1.67969 0.24738,-0.67706 0.37108,-1.46482 0.37109,-2.36328 -1e-5,-0.93748 -0.13673,-1.73175 -0.41015,-2.38281 -0.26044,-0.65102 -0.66408,-1.18488 -1.21094,-1.60157 -0.53387,-0.41664 -1.21746,-0.71612 -2.05078,-0.89843 -0.82033,-0.19529 -1.79689,-0.29295 -2.92969,-0.29297 l -3.125,0 0,10.5664"
             style="font-variant:normal;font-stretch:normal;text-align:start;line-height:125%;writing-mode:lr-tb;text-anchor:start;font-family:Droid Sans;-inkscape-font-specification:Droid Sans;fill:#cccccc"
             id="path3209"
             inkscape:connector-curvature="0" />
          <path
             d="m 171.64453,204.71372 -0.72266,-2.96875 -0.15625,0 c -0.4297,0.58594 -0.85938,1.09375 -1.28906,1.52343 -0.4297,0.41667 -0.89845,0.76172 -1.40625,1.03516 -0.50782,0.27344 -1.07423,0.47526 -1.69922,0.60547 -0.62501,0.13021 -1.34766,0.19531 -2.16797,0.19531 -0.89844,0 -1.72526,-0.13021 -2.48046,-0.39062 -0.75522,-0.2474 -1.41277,-0.63151 -1.97266,-1.15235 -0.54688,-0.53385 -0.97657,-1.19791 -1.28906,-1.99218 -0.3125,-0.80729 -0.46875,-1.75781 -0.46875,-2.85157 0,-2.13541 0.74869,-3.77603 2.24609,-4.92187 1.51041,-1.14582 3.80208,-1.77082 6.875,-1.875 l 3.59375,-0.13672 0,-1.34766 c -1e-5,-0.87238 -0.0977,-1.60154 -0.29297,-2.1875 -0.1823,-0.58592 -0.45574,-1.05467 -0.82031,-1.40625 -0.35158,-0.36456 -0.79428,-0.62498 -1.32813,-0.78125 -0.52084,-0.15623 -1.1198,-0.23435 -1.79687,-0.23437 -1.08074,2e-5 -2.08985,0.15627 -3.02734,0.46875 -0.92449,0.31252 -1.81642,0.69012 -2.67579,1.13281 l -1.25,-2.67578 c 0.96354,-0.52081 2.03776,-0.96352 3.22266,-1.32813 1.18489,-0.36456 2.42838,-0.54685 3.73047,-0.54687 1.32811,2e-5 2.47395,0.13674 3.4375,0.41016 0.97655,0.26043 1.77733,0.68361 2.40234,1.26953 0.63801,0.57293 1.11327,1.30861 1.42578,2.20703 0.31249,0.89845 0.46874,1.98569 0.46875,3.26172 l 0,14.6875 -2.55859,0 m -6.52344,-2.48047 c 0.79426,0 1.52994,-0.1237 2.20703,-0.3711 0.67708,-0.24739 1.26301,-0.61848 1.75782,-1.11328 0.49478,-0.50781 0.87889,-1.13932 1.15234,-1.89453 0.28645,-0.76822 0.42967,-1.66666 0.42969,-2.69531 l 0,-1.93359 -2.79297,0.13671 c -1.17189,0.0521 -2.15496,0.18231 -2.94922,0.39063 -0.79428,0.20834 -1.4323,0.50131 -1.91406,0.87891 -0.46876,0.36459 -0.8073,0.81381 -1.01563,1.34765 -0.20834,0.52084 -0.3125,1.11329 -0.3125,1.77735 0,1.19792 0.3125,2.07682 0.9375,2.63671 0.63802,0.5599 1.47135,0.83985 2.5,0.83985"
             style="font-variant:normal;font-stretch:normal;text-align:start;line-height:125%;writing-mode:lr-tb;text-anchor:start;font-family:Droid Sans;-inkscape-font-specification:Droid Sans;fill:#cccccc"
             id="path3211"
             inkscape:connector-curvature="0" />
          <path
             d="m 194.69141,204.71372 -0.52735,-2.8711 -0.19531,0 c -0.32554,0.5599 -0.71616,1.04818 -1.17188,1.46485 -0.44272,0.40364 -0.931,0.74218 -1.46484,1.01562 -0.53387,0.26042 -1.10027,0.45573 -1.69922,0.58594 -0.59897,0.13021 -1.21095,0.19531 -1.83594,0.19531 -1.1849,0 -2.22657,-0.14974 -3.125,-0.44922 -0.89844,-0.29948 -1.64714,-0.76823 -2.24609,-1.40625 -0.59896,-0.63802 -1.05469,-1.45182 -1.36719,-2.4414 -0.29948,-0.98958 -0.44922,-2.16797 -0.44922,-3.53516 l 0,-14.00391 3.55469,0 0,13.8086 c 0,1.69271 0.34505,2.96224 1.03516,3.80859 0.69009,0.84636 1.7578,1.26954 3.20312,1.26953 1.05468,1e-5 1.94009,-0.16927 2.65625,-0.50781 0.71614,-0.33854 1.28905,-0.83333 1.71875,-1.48437 0.4427,-0.66406 0.7552,-1.47786 0.9375,-2.44141 0.1953,-0.96353 0.29296,-2.0703 0.29297,-3.32031 l 0,-11.13282 3.55469,0 0,21.44532 -2.87109,0"
             style="font-variant:normal;font-stretch:normal;text-align:start;line-height:125%;writing-mode:lr-tb;text-anchor:start;font-family:Droid Sans;-inkscape-font-specification:Droid Sans;fill:#cccccc"
             id="path3213"
             inkscape:connector-curvature="0" />
          <path
             d="m 230.08203,204.71372 0,-13.8086 c -3e-5,-1.69269 -0.32555,-2.96222 -0.97656,-3.80859 -0.65107,-0.84634 -1.66018,-1.26951 -3.02735,-1.26953 -0.95054,2e-5 -1.75783,0.15627 -2.42187,0.46875 -0.66408,0.29949 -1.21096,0.74871 -1.64063,1.34765 -0.41668,0.58596 -0.72267,1.32163 -0.91796,2.20704 -0.19534,0.87241 -0.29299,1.88152 -0.29297,3.02734 l 0,11.83594 -3.57422,0 0,-13.8086 c -2e-5,-1.69269 -0.32554,-2.96222 -0.97656,-3.80859 -0.63804,-0.84634 -1.64064,-1.26951 -3.00782,-1.26953 -1.00261,2e-5 -1.84245,0.16929 -2.51953,0.50781 -0.67709,0.33856 -1.22396,0.83986 -1.64062,1.50391 -0.40366,0.66408 -0.69662,1.47788 -0.87891,2.4414 -0.16928,0.96356 -0.25391,2.07033 -0.25391,3.32032 l 0,11.11328 -3.55468,0 0,-21.44532 2.89062,0 0.50781,2.89063 0.19532,0 c 0.31249,-0.55988 0.68358,-1.04165 1.11328,-1.44531 0.42968,-0.41665 0.89843,-0.7617 1.40625,-1.03516 0.52082,-0.27342 1.0677,-0.47524 1.64062,-0.60547 0.58593,-0.13019 1.17838,-0.19529 1.77735,-0.19531 1.56248,2e-5 2.85805,0.28648 3.88672,0.85937 1.04165,0.57294 1.80987,1.47138 2.30468,2.69532 l 0.15625,0 c 0.33853,-0.61196 0.74217,-1.13931 1.21094,-1.58203 0.48175,-0.44269 1.00258,-0.80728 1.5625,-1.09375 0.5729,-0.29946 1.17185,-0.52082 1.79688,-0.66407 0.62497,-0.1432 1.26299,-0.21482 1.91406,-0.21484 2.27862,2e-5 3.99085,0.62502 5.13672,1.875 1.15882,1.237 1.73825,3.22267 1.73828,5.95703 l 0,14.00391 -3.55469,0"
             style="font-variant:normal;font-stretch:normal;text-align:start;line-height:125%;writing-mode:lr-tb;text-anchor:start;font-family:Droid Sans;-inkscape-font-specification:Droid Sans;fill:#cccccc"
             id="path3215"
             inkscape:connector-curvature="0" />
          <path
             d="m 259.96484,185.94419 -4.78515,0 0,18.76953 -3.57422,0 0,-18.76953 -3.78906,0 0,-1.46485 3.78906,-1.32812 0,-1.875 c -1e-5,-1.39321 0.14322,-2.54555 0.42969,-3.45703 0.29947,-0.92446 0.72265,-1.66013 1.26953,-2.20704 0.55989,-0.54684 1.24348,-0.93096 2.05078,-1.15234 0.80728,-0.23434 1.71874,-0.35153 2.73437,-0.35156 0.76822,3e-5 1.47135,0.0781 2.10938,0.23437 0.65103,0.14326 1.23045,0.30602 1.73828,0.48828 l -0.91797,2.75391 c -0.40366,-0.1432 -0.84637,-0.2669 -1.32812,-0.37109 -0.46877,-0.11716 -0.96356,-0.17576 -1.48438,-0.17578 -0.52084,2e-5 -0.97006,0.0651 -1.34766,0.19531 -0.37761,0.11721 -0.69011,0.33206 -0.9375,0.64453 -0.2474,0.31253 -0.4362,0.74221 -0.5664,1.28906 -0.1172,0.53388 -0.17579,1.22398 -0.17578,2.07031 l 0,2.03125 4.78515,0 0,2.67579"
             style="font-variant:normal;font-stretch:normal;text-align:start;line-height:125%;writing-mode:lr-tb;text-anchor:start;font-family:Droid Sans;-inkscape-font-specification:Droid Sans;fill:#cccccc"
             id="path3217"
             inkscape:connector-curvature="0" />
          <path
             d="m 277.73828,204.71372 -0.52734,-2.8711 -0.19532,0 c -0.32553,0.5599 -0.71616,1.04818 -1.17187,1.46485 -0.44272,0.40364 -0.931,0.74218 -1.46484,1.01562 -0.53387,0.26042 -1.10028,0.45573 -1.69922,0.58594 -0.59897,0.13021 -1.21095,0.19531 -1.83594,0.19531 -1.18491,0 -2.22657,-0.14974 -3.125,-0.44922 -0.89844,-0.29948 -1.64714,-0.76823 -2.24609,-1.40625 -0.59897,-0.63802 -1.0547,-1.45182 -1.36719,-2.4414 -0.29948,-0.98958 -0.44922,-2.16797 -0.44922,-3.53516 l 0,-14.00391 3.55469,0 0,13.8086 c -10e-6,1.69271 0.34504,2.96224 1.03515,3.80859 0.6901,0.84636 1.75781,1.26954 3.20313,1.26953 1.05467,1e-5 1.94009,-0.16927 2.65625,-0.50781 0.71613,-0.33854 1.28905,-0.83333 1.71875,-1.48437 0.44269,-0.66406 0.75519,-1.47786 0.9375,-2.44141 0.19529,-0.96353 0.29295,-2.0703 0.29297,-3.32031 l 0,-11.13282 3.55468,0 0,21.44532 -2.87109,0 m -11.25,-27.2461 c 0,-0.70309 0.18229,-1.21091 0.54688,-1.52343 0.36457,-0.31248 0.80728,-0.46873 1.32812,-0.46875 0.50781,2e-5 0.95051,0.16278 1.32813,0.48828 0.37759,0.31252 0.56639,0.81383 0.5664,1.5039 -1e-5,0.69013 -0.18881,1.19795 -0.5664,1.52344 -0.37762,0.32555 -0.82032,0.48831 -1.32813,0.48828 -0.52084,3e-5 -0.96355,-0.16273 -1.32812,-0.48828 -0.36459,-0.32549 -0.54688,-0.83331 -0.54688,-1.52344 m 7.32422,0 c -10e-6,-0.70309 0.18228,-1.21091 0.54687,-1.52343 0.36457,-0.31248 0.80728,-0.46873 1.32813,-0.46875 0.24738,2e-5 0.48176,0.0391 0.70312,0.11718 0.23436,0.0782 0.43619,0.20185 0.60547,0.3711 0.16926,0.15628 0.30598,0.3581 0.41016,0.60547 0.10415,0.24742 0.15623,0.5469 0.15625,0.89843 -2e-5,0.69013 -0.18882,1.19795 -0.56641,1.52344 -0.37762,0.32555 -0.81381,0.48831 -1.30859,0.48828 -0.52085,3e-5 -0.96356,-0.16273 -1.32813,-0.48828 -0.36459,-0.32549 -0.54688,-0.83331 -0.54687,-1.52344"
             style="font-variant:normal;font-stretch:normal;text-align:start;line-height:125%;writing-mode:lr-tb;text-anchor:start;font-family:Droid Sans;-inkscape-font-specification:Droid Sans;fill:#cccccc"
             id="path3219"
             inkscape:connector-curvature="0" />
          <path
             d="m 296.72266,182.87778 c 0.37759,2e-5 0.80076,0.0196 1.26953,0.0586 0.46873,0.0261 0.87238,0.0716 1.21093,0.13672 l -0.46875,3.28125 c -0.36459,-0.0651 -0.7422,-0.11717 -1.13281,-0.15625 -0.37761,-0.0521 -0.73569,-0.0781 -1.07422,-0.0781 -0.82032,2e-5 -1.56902,0.16929 -2.24609,0.50781 -0.67709,0.32554 -1.26303,0.8008 -1.75781,1.42578 -0.48178,0.612 -0.85939,1.35418 -1.13282,2.22656 -0.26042,0.85939 -0.39063,1.81642 -0.39062,2.8711 l 0,11.5625 -3.55469,0 0,-21.44532 2.89063,0 0.42968,3.92579 0.15625,0 c 0.32552,-0.55988 0.67057,-1.10025 1.03516,-1.6211 0.3776,-0.52081 0.79426,-0.97654 1.25,-1.36719 0.46874,-0.40362 0.98957,-0.72263 1.5625,-0.95703 0.57291,-0.24737 1.22395,-0.37107 1.95313,-0.37109"
             style="font-variant:normal;font-stretch:normal;text-align:start;line-height:125%;writing-mode:lr-tb;text-anchor:start;font-family:Droid Sans;-inkscape-font-specification:Droid Sans;fill:#cccccc"
             id="path3221"
             inkscape:connector-curvature="0" />
        </g>
        <g
           id="g3014">
          <path
             d="m 335.29687,190.16294 c -2e-5,2.40886 -0.31252,4.52474 -0.9375,6.34765 -0.62502,1.8099 -1.52997,3.32683 -2.71484,4.55078 -1.18491,1.21094 -2.64325,2.1224 -4.375,2.73438 -1.71876,0.61198 -3.67189,0.91797 -5.85937,0.91797 l -7.14844,0 0,-28.55469 7.94922,0 c 1.99217,3e-5 3.79555,0.29951 5.41015,0.89844 1.61457,0.59898 2.98826,1.49091 4.1211,2.67578 1.13279,1.1719 2.00518,2.63023 2.61718,4.375 0.62498,1.74481 0.93748,3.76304 0.9375,6.05469 m -3.84765,0.11718 c -2e-5,-1.90102 -0.21487,-3.54165 -0.64453,-4.92187 -0.42971,-1.39321 -1.05471,-2.53904 -1.875,-3.4375 -0.82033,-0.89842 -1.82945,-1.56248 -3.02735,-1.99219 -1.19793,-0.44268 -2.5586,-0.66404 -4.08203,-0.66406 l -3.92578,0 0,22.32422 3.16406,0 c 3.43749,0 6.02863,-0.95052 7.77344,-2.85157 1.74477,-1.90103 2.61717,-4.72004 2.61719,-8.45703"
             style="font-variant:normal;font-stretch:normal;text-align:start;line-height:125%;writing-mode:lr-tb;text-anchor:start;fill:#ff2a7f;fill-opacity:1;font-family:Droid Sans;-inkscape-font-specification:Droid Sans"
             id="path3223"
             inkscape:connector-curvature="0" />
          <path
             d="m 349.59375,205.10434 c -1.4323,0 -2.74089,-0.24088 -3.92578,-0.72265 -1.1849,-0.48177 -2.20704,-1.1849 -3.06641,-2.10938 -0.84636,-0.92448 -1.50391,-2.07031 -1.97265,-3.4375 -0.46876,-1.36718 -0.70313,-2.92968 -0.70313,-4.6875 0,-1.77082 0.21484,-3.35285 0.64453,-4.74609 0.42969,-1.39322 1.03515,-2.5716 1.81641,-3.53516 0.78124,-0.97654 1.71223,-1.71873 2.79297,-2.22656 1.09374,-0.50779 2.29816,-0.7617 3.61328,-0.76172 1.28905,2e-5 2.4479,0.2344 3.47656,0.70312 1.02863,0.45575 1.90103,1.10679 2.61719,1.95313 0.71613,0.83335 1.263,1.84246 1.64062,3.02734 0.39061,1.17189 0.58592,2.47397 0.58594,3.90625 l 0,2.20703 -13.51562,0 c 0.0651,2.51303 0.59244,4.36199 1.58203,5.54688 1.00259,1.1849 2.48697,1.77735 4.45312,1.77734 0.66405,1e-5 1.27603,-0.0326 1.83594,-0.0977 0.5729,-0.0651 1.11978,-0.15625 1.64062,-0.27344 0.53384,-0.13021 1.04817,-0.28646 1.54297,-0.46875 0.49478,-0.19531 0.99608,-0.41015 1.50391,-0.64453 l 0,3.16406 c -0.52085,0.2474 -1.03517,0.46224 -1.54297,0.64453 -0.49481,0.18229 -1.00913,0.33203 -1.54297,0.44922 -0.52085,0.11719 -1.06772,0.20182 -1.64062,0.25391 -0.55991,0.0521 -1.17189,0.0781 -1.83594,0.0781 M 348.71484,185.827 c -1.48438,2e-5 -2.66277,0.50783 -3.53515,1.52344 -0.85938,1.01564 -1.36069,2.4935 -1.50391,4.43359 l 9.60938,0 c -2e-5,-0.8854 -0.0912,-1.69269 -0.27344,-2.42188 -0.16929,-0.74217 -0.44272,-1.37368 -0.82031,-1.89453 -0.3646,-0.52081 -0.83335,-0.92446 -1.40625,-1.21093 -0.57293,-0.28644 -1.26304,-0.42967 -2.07032,-0.42969"
             style="font-variant:normal;font-stretch:normal;text-align:start;line-height:125%;writing-mode:lr-tb;text-anchor:start;fill:#ff2a7f;fill-opacity:1;font-family:Droid Sans;-inkscape-font-specification:Droid Sans"
             id="path3225"
             inkscape:connector-curvature="0" />
          <path
             d="m 366.07812,204.71372 -3.55468,0 0,-21.44532 3.55468,0 0,21.44532 M 362.25,177.46762 c 0,-0.78122 0.19531,-1.34762 0.58594,-1.69922 0.40364,-0.35153 0.89843,-0.52731 1.48437,-0.52734 0.28646,3e-5 0.55338,0.0456 0.80078,0.13672 0.26041,0.0781 0.48177,0.20836 0.66407,0.39062 0.1953,0.18232 0.34504,0.4167 0.44921,0.70313 0.11719,0.27346 0.17578,0.6055 0.17579,0.99609 -1e-5,0.75524 -0.20834,1.32164 -0.625,1.69922 -0.40366,0.36461 -0.89194,0.5469 -1.46485,0.54688 -0.58594,2e-5 -1.08073,-0.18227 -1.48437,-0.54688 -0.39063,-0.36456 -0.58594,-0.93096 -0.58594,-1.69922"
             style="font-variant:normal;font-stretch:normal;text-align:start;line-height:125%;writing-mode:lr-tb;text-anchor:start;fill:#ff2a7f;fill-opacity:1;font-family:Droid Sans;-inkscape-font-specification:Droid Sans"
             id="path3227"
             inkscape:connector-curvature="0" />
          <path
             d="m 386.3125,204.71372 0,-13.8086 c -2e-5,-1.69269 -0.34507,-2.96222 -1.03516,-3.80859 -0.67709,-0.84634 -1.7448,-1.26951 -3.20312,-1.26953 -1.0547,2e-5 -1.94012,0.16929 -2.65625,0.50781 -0.71616,0.33856 -1.29558,0.83986 -1.73828,1.50391 -0.4297,0.66408 -0.7422,1.47788 -0.9375,2.4414 -0.1823,0.96356 -0.27345,2.07033 -0.27344,3.32032 l 0,11.11328 -3.55469,0 0,-21.44532 2.89063,0 0.50781,2.89063 0.19531,0 c 0.32552,-0.55988 0.70963,-1.04165 1.15235,-1.44531 0.45572,-0.41665 0.95051,-0.7617 1.48437,-1.03516 0.53385,-0.27342 1.10025,-0.47524 1.69922,-0.60547 0.59895,-0.13019 1.21092,-0.19529 1.83594,-0.19531 2.38279,2e-5 4.17316,0.62502 5.37109,1.875 1.21092,1.237 1.81639,3.22267 1.81641,5.95703 l 0,14.00391 -3.55469,0"
             style="font-variant:normal;font-stretch:normal;text-align:start;line-height:125%;writing-mode:lr-tb;text-anchor:start;fill:#ff2a7f;fill-opacity:1;font-family:Droid Sans;-inkscape-font-specification:Droid Sans"
             id="path3229"
             inkscape:connector-curvature="0" />
          <path
             d="m 404.98437,205.10434 c -1.4323,0 -2.74089,-0.24088 -3.92578,-0.72265 -1.1849,-0.48177 -2.20703,-1.1849 -3.0664,-2.10938 -0.84636,-0.92448 -1.50391,-2.07031 -1.97266,-3.4375 -0.46875,-1.36718 -0.70313,-2.92968 -0.70312,-4.6875 -1e-5,-1.77082 0.21484,-3.35285 0.64453,-4.74609 0.42968,-1.39322 1.03515,-2.5716 1.8164,-3.53516 0.78125,-0.97654 1.71224,-1.71873 2.79297,-2.22656 1.09374,-0.50779 2.29817,-0.7617 3.61328,-0.76172 1.28905,2e-5 2.44791,0.2344 3.47657,0.70312 1.02863,0.45575 1.90102,1.10679 2.61718,1.95313 0.71613,0.83335 1.26301,1.84246 1.64063,3.02734 0.3906,1.17189 0.58592,2.47397 0.58594,3.90625 l 0,2.20703 -13.51563,0 c 0.0651,2.51303 0.59244,4.36199 1.58203,5.54688 1.0026,1.1849 2.48697,1.77735 4.45313,1.77734 0.66405,1e-5 1.27603,-0.0326 1.83593,-0.0977 0.57291,-0.0651 1.11978,-0.15625 1.64063,-0.27344 0.53384,-0.13021 1.04816,-0.28646 1.54297,-0.46875 0.49477,-0.19531 0.99607,-0.41015 1.5039,-0.64453 l 0,3.16406 c -0.52085,0.2474 -1.03517,0.46224 -1.54296,0.64453 -0.49481,0.18229 -1.00913,0.33203 -1.54297,0.44922 -0.52085,0.11719 -1.06773,0.20182 -1.64063,0.25391 -0.55991,0.0521 -1.17189,0.0781 -1.83594,0.0781 m -0.8789,-19.27734 c -1.48439,2e-5 -2.66277,0.50783 -3.53516,1.52344 -0.85938,1.01564 -1.36068,2.4935 -1.5039,4.43359 l 9.60937,0 c -10e-6,-0.8854 -0.0912,-1.69269 -0.27344,-2.42188 -0.16928,-0.74217 -0.44272,-1.37368 -0.82031,-1.89453 -0.3646,-0.52081 -0.83335,-0.92446 -1.40625,-1.21093 -0.57293,-0.28644 -1.26303,-0.42967 -2.07031,-0.42969"
             style="font-variant:normal;font-stretch:normal;text-align:start;line-height:125%;writing-mode:lr-tb;text-anchor:start;fill:#ff2a7f;fill-opacity:1;font-family:Droid Sans;-inkscape-font-specification:Droid Sans"
             id="path3231"
             inkscape:connector-curvature="0" />
        </g>
        <g
           id="g3021"
           style="fill:#cccccc">
          <path
             d="m 436.85937,204.71372 -10.35156,0 0,-1.99219 3.35938,-0.80078 0,-22.96875 -3.35938,-0.80078 0,-1.99219 10.35156,0 0,1.99219 -3.35937,0.80078 0,22.96875 3.35937,0.80078 0,1.99219"
             style="font-variant:normal;font-stretch:normal;text-align:start;line-height:125%;writing-mode:lr-tb;text-anchor:start;font-family:Droid Sans;-inkscape-font-specification:Droid Sans;fill:#cccccc"
             id="path3233"
             inkscape:connector-curvature="0" />
          <path
             d="m 455.14062,201.84262 -0.15625,0 c -0.28647,0.44271 -0.62501,0.86589 -1.01562,1.26953 -0.37762,0.39063 -0.82033,0.73568 -1.32813,1.03516 -0.4948,0.29948 -1.0547,0.53385 -1.67968,0.70313 -0.62501,0.16927 -1.32814,0.2539 -2.10938,0.2539 -1.21094,0 -2.31771,-0.23437 -3.32031,-0.70312 -1.00261,-0.46875 -1.86198,-1.16537 -2.57813,-2.08985 -0.71614,-0.93749 -1.26953,-2.09635 -1.66015,-3.47656 -0.39063,-1.3802 -0.58594,-2.98176 -0.58594,-4.80469 0,-1.83592 0.19531,-3.44399 0.58594,-4.82422 0.39062,-1.39321 0.94401,-2.55857 1.66015,-3.49609 0.71615,-0.93748 1.57552,-1.6406 2.57813,-2.10937 1.0026,-0.48175 2.10937,-0.72264 3.32031,-0.72266 0.76822,2e-5 1.46483,0.0847 2.08985,0.25391 0.62498,0.16929 1.18488,0.39715 1.67968,0.68359 0.5078,0.28648 0.95702,0.61851 1.34766,0.99609 0.39061,0.37763 0.72915,0.77476 1.01562,1.19141 l 0.23438,0 c -0.0391,-0.44269 -0.0781,-0.86587 -0.11719,-1.26953 -0.0261,-0.33852 -0.0521,-0.68358 -0.0781,-1.03516 -0.0261,-0.36456 -0.0391,-0.65102 -0.0391,-0.85937 l 0,-8.51563 3.55469,0 0,30.39063 -2.87109,0 -0.52735,-2.8711 m -5.60546,0.3125 c 0.98957,1e-5 1.8229,-0.14973 2.5,-0.44922 0.69009,-0.29947 1.24347,-0.7552 1.66015,-1.36718 0.42967,-0.61198 0.74217,-1.3737 0.9375,-2.28516 0.20832,-0.92447 0.32551,-1.99869 0.35156,-3.22266 l 0,-0.80078 c -10e-6,-1.31509 -0.0912,-2.48045 -0.27343,-3.49609 -0.16929,-1.02863 -0.46877,-1.88801 -0.89844,-2.57813 -0.41668,-0.7031 -0.97658,-1.23045 -1.67969,-1.58203 -0.70314,-0.36456 -1.58204,-0.54685 -2.63672,-0.54687 -1.75782,2e-5 -3.05339,0.70965 -3.88672,2.1289 -0.82031,1.41929 -1.23047,3.45705 -1.23046,6.11329 -10e-6,2.72136 0.41015,4.75261 1.23046,6.09375 0.83333,1.32812 2.14192,1.99219 3.92579,1.99218"
             style="font-variant:normal;font-stretch:normal;text-align:start;line-height:125%;writing-mode:lr-tb;text-anchor:start;font-family:Droid Sans;-inkscape-font-specification:Droid Sans;fill:#cccccc"
             id="path3235"
             inkscape:connector-curvature="0" />
          <path
             d="m 473.8125,205.10434 c -1.4323,0 -2.74089,-0.24088 -3.92578,-0.72265 -1.1849,-0.48177 -2.20704,-1.1849 -3.06641,-2.10938 -0.84636,-0.92448 -1.50391,-2.07031 -1.97265,-3.4375 -0.46876,-1.36718 -0.70313,-2.92968 -0.70313,-4.6875 0,-1.77082 0.21484,-3.35285 0.64453,-4.74609 0.42969,-1.39322 1.03515,-2.5716 1.81641,-3.53516 0.78124,-0.97654 1.71223,-1.71873 2.79297,-2.22656 1.09374,-0.50779 2.29816,-0.7617 3.61328,-0.76172 1.28905,2e-5 2.4479,0.2344 3.47656,0.70312 1.02863,0.45575 1.90103,1.10679 2.61719,1.95313 0.71613,0.83335 1.263,1.84246 1.64062,3.02734 0.39061,1.17189 0.58592,2.47397 0.58594,3.90625 l 0,2.20703 -13.51562,0 c 0.0651,2.51303 0.59244,4.36199 1.58203,5.54688 1.00259,1.1849 2.48697,1.77735 4.45312,1.77734 0.66405,1e-5 1.27603,-0.0326 1.83594,-0.0977 0.5729,-0.0651 1.11978,-0.15625 1.64062,-0.27344 0.53384,-0.13021 1.04817,-0.28646 1.54297,-0.46875 0.49478,-0.19531 0.99608,-0.41015 1.50391,-0.64453 l 0,3.16406 c -0.52085,0.2474 -1.03517,0.46224 -1.54297,0.64453 -0.49481,0.18229 -1.00913,0.33203 -1.54297,0.44922 -0.52085,0.11719 -1.06772,0.20182 -1.64062,0.25391 -0.55991,0.0521 -1.17189,0.0781 -1.83594,0.0781 M 472.93359,185.827 c -1.48438,2e-5 -2.66277,0.50783 -3.53515,1.52344 -0.85938,1.01564 -1.36069,2.4935 -1.50391,4.43359 l 9.60938,0 c -2e-5,-0.8854 -0.0912,-1.69269 -0.27344,-2.42188 -0.16929,-0.74217 -0.44272,-1.37368 -0.82031,-1.89453 -0.3646,-0.52081 -0.83335,-0.92446 -1.40625,-1.21093 -0.57293,-0.28644 -1.26304,-0.42967 -2.07032,-0.42969"
             style="font-variant:normal;font-stretch:normal;text-align:start;line-height:125%;writing-mode:lr-tb;text-anchor:start;font-family:Droid Sans;-inkscape-font-specification:Droid Sans;fill:#cccccc"
             id="path3237"
             inkscape:connector-curvature="0" />
          <path
             d="m 495.21875,205.10434 c -1.4323,0 -2.74089,-0.24088 -3.92578,-0.72265 -1.1849,-0.48177 -2.20704,-1.1849 -3.06641,-2.10938 -0.84636,-0.92448 -1.50391,-2.07031 -1.97265,-3.4375 -0.46876,-1.36718 -0.70313,-2.92968 -0.70313,-4.6875 0,-1.77082 0.21484,-3.35285 0.64453,-4.74609 0.42969,-1.39322 1.03515,-2.5716 1.81641,-3.53516 0.78124,-0.97654 1.71223,-1.71873 2.79297,-2.22656 1.09374,-0.50779 2.29816,-0.7617 3.61328,-0.76172 1.28905,2e-5 2.4479,0.2344 3.47656,0.70312 1.02863,0.45575 1.90103,1.10679 2.61719,1.95313 0.71613,0.83335 1.263,1.84246 1.64062,3.02734 0.39061,1.17189 0.58592,2.47397 0.58594,3.90625 l 0,2.20703 -13.51562,0 c 0.0651,2.51303 0.59244,4.36199 1.58203,5.54688 1.00259,1.1849 2.48697,1.77735 4.45312,1.77734 0.66405,1e-5 1.27603,-0.0326 1.83594,-0.0977 0.5729,-0.0651 1.11978,-0.15625 1.64062,-0.27344 0.53384,-0.13021 1.04817,-0.28646 1.54297,-0.46875 0.49478,-0.19531 0.99608,-0.41015 1.50391,-0.64453 l 0,3.16406 c -0.52085,0.2474 -1.03517,0.46224 -1.54297,0.64453 -0.49481,0.18229 -1.00913,0.33203 -1.54297,0.44922 -0.52085,0.11719 -1.06772,0.20182 -1.64062,0.25391 -0.55991,0.0521 -1.17189,0.0781 -1.83594,0.0781 M 494.33984,185.827 c -1.48438,2e-5 -2.66277,0.50783 -3.53515,1.52344 -0.85938,1.01564 -1.36069,2.4935 -1.50391,4.43359 l 9.60938,0 c -2e-5,-0.8854 -0.0912,-1.69269 -0.27344,-2.42188 -0.16929,-0.74217 -0.44272,-1.37368 -0.82031,-1.89453 -0.3646,-0.52081 -0.83335,-0.92446 -1.40625,-1.21093 -0.57293,-0.28644 -1.26304,-0.42967 -2.07032,-0.42969"
             style="font-variant:normal;font-stretch:normal;text-align:start;line-height:125%;writing-mode:lr-tb;text-anchor:start;font-family:Droid Sans;-inkscape-font-specification:Droid Sans;fill:#cccccc"
             id="path3239"
             inkscape:connector-curvature="0" />
          <path
             d="m 521.54687,204.71372 0,-13.8086 c -10e-6,-1.69269 -0.34506,-2.96222 -1.03515,-3.80859 -0.6771,-0.84634 -1.74481,-1.26951 -3.20313,-1.26953 -1.0547,2e-5 -1.94011,0.16929 -2.65625,0.50781 -0.71615,0.33856 -1.29558,0.83986 -1.73828,1.50391 -0.42969,0.66408 -0.74219,1.47788 -0.9375,2.4414 -0.1823,0.96356 -0.27344,2.07033 -0.27344,3.32032 l 0,11.11328 -3.55468,0 0,-21.44532 2.89062,0 0.50781,2.89063 0.19532,0 c 0.32551,-0.55988 0.70963,-1.04165 1.15234,-1.44531 0.45572,-0.41665 0.95051,-0.7617 1.48438,-1.03516 0.53384,-0.27342 1.10025,-0.47524 1.69921,-0.60547 0.59895,-0.13019 1.21093,-0.19529 1.83594,-0.19531 2.3828,2e-5 4.17316,0.62502 5.3711,1.875 1.21091,1.237 1.81638,3.22267 1.8164,5.95703 l 0,14.00391 -3.55469,0"
             style="font-variant:normal;font-stretch:normal;text-align:start;line-height:125%;writing-mode:lr-tb;text-anchor:start;font-family:Droid Sans;-inkscape-font-specification:Droid Sans;fill:#cccccc"
             id="path3241"
             inkscape:connector-curvature="0" />
        </g>
      </g>
      <g
         transform="matrix(0.7200014,0,0,0.7200014,-20.254249,649.9346)"
         id="g3769">
        <path
           inkscape:transform-center-x="70.196105"
           inkscape:transform-center-y="-70.197884"
           sodipodi:nodetypes="ccccc"
           inkscape:connector-curvature="0"
           id="path3675"
           d="m 289.80335,283.58807 c 10e-6,-56.60992 45.89007,-102.49999 102.5,-102.5 l 0,-40.25 c -78.84176,1e-5 -142.74999,63.90824 -142.75,142.75 z"
           style="fill:#ff2a7f;fill-opacity:1;stroke:none" />
        <path
           sodipodi:nodetypes="ccssccsscc"
           style="fill:#cccccc;fill-opacity:1;stroke:none"
           d="m 392.30335,140.67333 0,40.24994 c 56.60994,0 102.5,45.89006 102.5,102.5 0,56.60993 -45.89006,102.5 -102.5,102.5 -56.60993,0 -102.5,-45.89007 -102.5,-102.5 l -40.25,0 c 0,78.84177 63.90823,142.75 142.75,142.75 78.84177,0 142.75,-63.90823 142.75,-142.75 0,-78.84177 -63.90823,-142.74999 -142.75,-142.74999 z"
           id="path3765"
           inkscape:connector-curvature="0" />
      </g>
    </g>
  </g>
</svg>
